<?xml version="1.0" standalone="no"?>
<!DOCTYPE svg PUBLIC "-//W3C//DTD SVG 20010904//EN"
 "http://www.w3.org/TR/2001/REC-SVG-20010904/DTD/svg10.dtd">
<svg version="1.0" xmlns="http://www.w3.org/2000/svg"
  height="70.000000pt" viewBox="0 0 502.000000 180.000000"
 preserveAspectRatio="xMidYMid meet">

<g transform="translate(0.000000,180.000000) scale(0.100000,-0.100000)"
 stroke="none" fill="#FEFEFE">
<path fill="#A9A9A9" d="M1343 1450 c-12 -5 -29 -20 -38 -34 -17 -26 -17 -35 1 -154 3 -23 3
-58 -1 -78 -6 -32 -12 -38 -72 -65 -35 -16 -72 -29 -81 -29 -25 0 -82 -38 -82
-54 0 -8 10 -22 22 -30 21 -15 23 -15 30 4 4 12 13 20 20 18 7 -1 24 5 38 14
14 8 37 18 52 22 l27 6 -16 -47 c-21 -66 -55 -96 -103 -91 -35 3 -37 2 -30
-18 7 -17 -4 -30 -81 -88 -49 -37 -115 -80 -147 -96 -32 -16 -90 -59 -130 -95
-40 -36 -78 -65 -85 -65 -7 1 -30 7 -52 15 -67 25 -71 17 -24 -51 17 -25 29
-47 27 -50 -3 -2 -19 3 -36 12 -64 32 -137 -19 -135 -94 1 -43 48 -92 89 -92
59 0 103 40 134 122 16 45 32 66 72 98 28 22 68 45 89 50 24 7 48 23 64 44 22
29 44 40 137 71 72 24 138 39 187 42 l77 6 51 -49 c28 -27 62 -71 76 -99 30
-60 77 -104 125 -117 20 -6 79 -11 132 -12 89 -2 99 -4 168 -41 54 -29 75 -36
84 -27 16 16 2 39 -65 101 -52 50 -59 53 -80 42 -20 -10 -33 -9 -83 9 -32 12
-78 24 -100 27 -37 4 -44 9 -57 41 -29 72 -51 148 -57 194 -5 40 -3 49 11 53
18 6 23 29 37 165 10 96 30 125 107 160 76 34 89 50 82 98 -15 88 -36 137 -67
156 -38 22 -47 15 -31 -20 10 -23 9 -26 -4 -21 -22 9 -19 2 15 -31 35 -35 36
-44 13 -68 -14 -14 -29 -15 -85 -10 -37 3 -79 11 -93 18 -22 10 -25 17 -25 63
0 32 -5 57 -13 64 -20 16 -69 22 -94 11z"/>
<path fill="#20a6c1" d="M1746 1394 c4 -16 11 -39 15 -52 5 -13 9 -45 9 -72 0 -58 -18 -80
-95 -115 -75 -34 -81 -45 -95 -170 -6 -60 -18 -120 -26 -132 -23 -37 -18 -75
29 -205 7 -21 16 -28 37 -28 15 0 48 -9 74 -20 34 -16 57 -19 93 -15 48 6 48
6 115 -57 37 -35 71 -74 77 -88 7 -19 10 1 10 83 l1 107 -105 0 -105 0 0 265
0 265 105 0 105 0 0 125 0 125 -109 0 c-60 0 -117 3 -126 6 -13 5 -15 2 -9
-22z"/>
<path fill="#00557e" d="M390 1295 l0 -115 135 0 135 0 0 -270 0 -270 -27 0 c-22 0 -25 -2
-13 -10 30 -19 53 -9 116 49 35 33 91 74 126 93 55 29 63 36 60 58 -2 14 -4
52 -5 85 -3 113 72 217 186 260 l47 18 0 108 0 109 -380 0 -380 0 0 -115z"/>
<path d="M2270 880 l0 -260 40 0 40 0 0 110 0 110 80 0 80 0 0 35 0 35 -80 0
-80 0 0 80 0 80 104 0 c99 0 104 1 110 23 13 48 14 47 -144 47 l-150 0 0 -260z"/>
<path d="M3680 1095 l0 -45 40 0 40 0 0 45 0 45 -40 0 -40 0 0 -45z"/>
<path fill="#00557e" d="M390 908 l0 -208 105 0 105 0 0 208 0 207 -105 0 -105 0 0 -207z"/>
<path d="M3483 1103 c-21 -4 -23 -10 -23 -68 l0 -64 -33 -3 c-32 -3 -33 -4
-25 -35 7 -26 14 -33 33 -33 l25 0 0 -110 c0 -159 19 -187 117 -173 42 6 44 7
41 37 -3 27 -7 32 -38 36 l-35 5 -3 103 -3 102 34 0 c27 0 36 5 41 23 11 42 7
47 -34 47 l-40 0 0 70 c0 75 1 74 -57 63z"/>
<path d="M4263 1103 c-21 -4 -23 -10 -23 -69 l0 -64 -30 0 c-31 0 -34 -7 -24
-47 4 -15 14 -23 29 -23 22 0 23 -3 26 -121 4 -119 5 -121 33 -145 24 -22 34
-24 75 -18 56 8 61 12 54 47 -4 21 -11 27 -32 27 -44 0 -51 16 -51 117 l0 93
34 0 c38 0 40 2 50 43 6 26 5 27 -39 27 l-45 0 0 70 c0 75 1 74 -57 63z"/>
<path fill="#20a6c1" d="M1830 895 l0 -205 80 0 80 0 0 205 0 205 -80 0 -80 0 0 -205z"/>
<path d="M2734 960 c-102 -32 -138 -199 -62 -285 50 -57 151 -70 229 -30 91
48 89 253 -3 301 -38 20 -123 27 -164 14z m131 -86 c36 -39 36 -124 0 -159
-30 -31 -92 -34 -126 -6 -21 17 -24 28 -24 86 0 58 3 69 24 86 35 29 96 25
126 -7z"/>
<path d="M3114 960 c-102 -32 -138 -199 -62 -285 50 -57 151 -70 229 -30 91
48 89 253 -3 301 -38 20 -123 27 -164 14z m131 -85 c21 -20 25 -34 25 -80 0
-46 -4 -60 -25 -80 -30 -31 -92 -34 -126 -6 -21 17 -24 28 -24 86 0 58 3 69
24 86 34 28 96 25 126 -6z"/>
<path d="M3680 795 l0 -175 40 0 40 0 0 175 0 175 -40 0 -40 0 0 -175z"/>
<path d="M3924 959 c-40 -11 -64 -38 -70 -80 -8 -45 24 -85 77 -99 21 -5 57
-15 79 -20 32 -9 40 -15 40 -34 0 -13 -7 -27 -16 -30 -33 -13 -92 -6 -117 14
-22 17 -29 18 -51 9 -78 -36 46 -109 157 -94 71 10 109 49 105 106 -4 54 -34
78 -118 93 -65 11 -88 30 -77 60 9 24 75 21 102 -4 19 -18 26 -19 49 -9 29 14
32 25 12 51 -30 40 -106 56 -172 37z"/>
<path d="M4565 963 c-40 -10 -85 -36 -85 -48 0 -6 9 -20 19 -29 18 -17 22 -17
43 -2 26 19 99 21 116 4 7 -7 12 -19 12 -27 0 -13 -13 -16 -63 -17 -37 0 -75
-8 -95 -18 -66 -34 -80 -126 -26 -177 31 -29 116 -33 157 -6 26 17 27 17 27
-3 0 -17 7 -20 40 -20 l40 0 0 101 c0 121 -13 179 -49 213 -27 26 -94 41 -136
29z m105 -210 c0 -40 -27 -63 -73 -63 -41 0 -77 22 -77 46 0 29 31 44 91 44
57 0 59 -1 59 -27z"/>
<path fill="#00557e" d="M1015 642 c-32 -9 -64 -28 -90 -53 -22 -21 -56 -44 -75 -50 -19 -7
-48 -23 -63 -36 -16 -12 -33 -23 -38 -23 -4 0 -16 -14 -24 -30 l-16 -30 223 2
223 3 -1 99 -2 99 -43 17 c-39 14 -50 14 -94 2z"/>
<path fill="#20a6c1" d="M1277 637 l-29 -12 0 -100 0 -100 174 -2 c162 -1 170 0 119 12 -66
16 -119 65 -164 150 -34 65 -51 73 -100 52z"/>
<path fill="#00557e" d="M390 528 l0 -113 19 40 c20 44 55 79 86 89 17 5 20 14 20 51 l0 45
-62 0 -63 0 0 -112z"/>
<path fill="#20a6c1" d="M1688 423 c12 -2 30 -2 40 0 9 3 -1 5 -23 4 -22 0 -30 -2 -17 -4z"/>
</g>
</svg>
